<?xml version="1.0" encoding="UTF-8"?>
<svg version="1.1" xmlns="http://www.w3.org/2000/svg" width="200" height="200">
<path d="M0 0 C66 0 132 0 200 0 C200 66 200 132 200 200 C134 200 68 200 0 200 C0 134 0 68 0 0 Z " fill="#010101" transform="translate(0,0)"/>
<path d="M0 0 C0 38.28 0 76.56 0 116 C-65.34 116 -130.68 116 -198 116 C-198 85.64 -198 55.28 -198 24 C-187.44 22.68 -176.88 21.36 -166 20 C-162.679375 19.58234375 -159.35875 19.1646875 -155.9375 18.734375 C-153.29171469 18.40586298 -150.64588432 18.07771359 -148 17.75 C-147.32179199 17.66395508 -146.64358398 17.57791016 -145.94482422 17.48925781 C-143.92209354 17.23302303 -141.89866979 16.98306984 -139.875 16.734375 C-138.73804688 16.59225586 -137.60109375 16.45013672 -136.4296875 16.30371094 C-132.6333029 15.96752768 -128.81124064 16 -125 16 C-124.67 22.6 -124.34 29.2 -124 36 C-116.74 36 -109.48 36 -102 36 C-101.67 28.74 -101.34 21.48 -101 14 C-102.98 14.33 -104.96 14.66 -107 15 C-107.33 20.28 -107.66 25.56 -108 31 C-111.3 31 -114.6 31 -118 31 C-118 26.05 -118 21.1 -118 16 C-119.65 16 -121.3 16 -123 16 C-123 15.67 -123 15.34 -123 15 C-119.68907899 14.48916442 -116.37606521 13.99336786 -113.0625 13.5 C-112.13630859 13.35691406 -111.21011719 13.21382812 -110.25585938 13.06640625 C-104.43316429 12.20832487 -98.88525633 11.85513215 -93 12 C-93.66 12.33 -94.32 12.66 -95 13 C-95 20.92 -95 28.84 -95 37 C-92.69 37 -90.38 37 -88 37 C-88 31.39 -88 25.78 -88 20 C-84.38671875 19.77213542 -80.7734375 19.54427083 -77.16015625 19.31640625 C-74.13976043 19.35080812 -74.13976043 19.35080812 -73 18 C-72.76924918 16.65252916 -72.58846937 15.29622435 -72.4375 13.9375 C-72.293125 12.638125 -72.14875 11.33875 -72 10 C-72.99 9.67 -73.98 9.34 -75 9 C-68.565 8.505 -68.565 8.505 -62 8 C-61.01 9.65 -60.02 11.3 -59 13 C-57.28295879 14.99167256 -57.28295879 14.99167256 -55.4375 16.75 C-54.83808594 17.34296875 -54.23867187 17.9359375 -53.62109375 18.546875 C-52.04702688 20.08648655 -52.04702688 20.08648655 -50 21 C-50 24.3 -50 27.6 -50 31 C-52.97 31 -55.94 31 -59 31 C-59.33 28.03 -59.66 25.06 -60 22 C-61.98 21.67 -63.96 21.34 -66 21 C-65.67 25.95 -65.34 30.9 -65 36 C-61.68744674 36.02683436 -58.37510817 36.0467578 -55.0625 36.0625 C-53.64420898 36.07506836 -53.64420898 36.07506836 -52.19726562 36.08789062 C-51.29814453 36.09111328 -50.39902344 36.09433594 -49.47265625 36.09765625 C-48.64000244 36.10289307 -47.80734863 36.10812988 -46.94946289 36.11352539 C-44.99483202 36.21643292 -44.99483202 36.21643292 -44 35 C-43.91368126 33.65732587 -43.89293527 32.31025678 -43.90234375 30.96484375 C-43.90556641 30.15595703 -43.90878906 29.34707031 -43.91210938 28.51367188 C-43.92048828 27.66353516 -43.92886719 26.81339844 -43.9375 25.9375 C-43.94426758 24.65649414 -43.94426758 24.65649414 -43.95117188 23.34960938 C-43.96299627 21.23304337 -43.98093231 19.11651315 -44 17 C-44.60199219 16.73316406 -45.20398438 16.46632813 -45.82421875 16.19140625 C-48.04185252 14.97708255 -49.18832089 13.842517 -50.8125 11.9375 C-53.8986947 8.69344367 -56.4989343 8.18004263 -61 8 C-61 7.67 -61 7.34 -61 7 C-53.4385705 5.99676337 -45.87623387 5.00059363 -38.31323242 4.00927734 C-35.74173013 3.67137789 -33.17043798 3.33187511 -30.59936523 2.99072266 C-26.89881917 2.49998718 -23.19754997 2.01506646 -19.49609375 1.53125 C-17.77851112 1.30157532 -17.77851112 1.30157532 -16.02622986 1.06726074 C-14.94563797 0.92711548 -13.86504608 0.78697021 -12.75170898 0.64257812 C-11.80794907 0.51822388 -10.86418915 0.39386963 -9.89183044 0.26574707 C-6.60720386 -0.03609632 -3.2984665 0 0 0 Z " fill="#FBFBFB" transform="translate(199,83)"/>
<path d="M0 0 C3.403125 -0.061875 6.80625 -0.12375 10.3125 -0.1875 C11.38153564 -0.21481201 12.45057129 -0.24212402 13.55200195 -0.27026367 C14.81983521 -0.28150269 14.81983521 -0.28150269 16.11328125 -0.29296875 C16.97735596 -0.3086792 17.84143066 -0.32438965 18.73168945 -0.34057617 C21 0 21 0 22.78491211 1.25830078 C24.27907685 3.40002697 24.36153742 4.56579715 24.328125 7.16015625 C24.32296875 7.95357422 24.3178125 8.74699219 24.3125 9.56445312 C24.291875 10.38880859 24.27125 11.21316406 24.25 12.0625 C24.24484375 12.89072266 24.2396875 13.71894531 24.234375 14.57226562 C24.15472274 20.69055451 24.15472274 20.69055451 23 23 C23.99 23.33 24.98 23.66 26 24 C25.01 24.33 24.02 24.66 23 25 C23.04125 26.27875 23.0825 27.5575 23.125 28.875 C23.1953125 31.0546875 23.1953125 31.0546875 23 33 C21 35 21 35 17.7421875 35.1953125 C14.16145833 35.13020833 10.58072917 35.06510417 7 35 C7 40.61 7 46.22 7 52 C4.69 52 2.38 52 0 52 C0 43.42 0 34.84 0 26 C0.99 25.67 1.98 25.34 3 25 C2.01 24.67 1.02 24.34 0 24 C0 16.08 0 8.16 0 0 Z " fill="#080808" transform="translate(104,68)"/>
<path d="M0 0 C0.76828125 -0.02449219 1.5365625 -0.04898438 2.328125 -0.07421875 C5.97359114 -0.09313985 8.03543985 -0.0064801 11.1484375 2.0078125 C13.0598719 5.07217558 13.0308557 7.04031879 12.875 10.625 C12.83890625 11.70265625 12.8028125 12.7803125 12.765625 13.890625 C12.69601563 15.12039062 12.69601563 15.12039062 12.625 16.375 C10.315 16.375 8.005 16.375 5.625 16.375 C5.625 13.405 5.625 10.435 5.625 7.375 C2.655 7.375 -0.315 7.375 -3.375 7.375 C-3.25125 8.798125 -3.1275 10.22125 -3 11.6875 C-2.93039063 12.48800781 -2.86078125 13.28851563 -2.7890625 14.11328125 C-2.47935574 16.64724441 -2.47935574 16.64724441 -0.375 19.375 C-0.705 20.035 -1.035 20.695 -1.375 21.375 C0.275 21.375 1.925 21.375 3.625 21.375 C2.965 22.035 2.305 22.695 1.625 23.375 C2.16769531 23.91769531 2.71039063 24.46039063 3.26953125 25.01953125 C5.38802083 27.13802083 7.50651042 29.25651042 9.625 31.375 C10.19992188 31.79007813 10.77484375 32.20515625 11.3671875 32.6328125 C13.48842436 35.57092318 13.01445083 38.95624441 12.9375 42.4375 C12.94233398 43.53674805 12.94233398 43.53674805 12.94726562 44.65820312 C12.89221939 50.10778061 12.89221939 50.10778061 10.625 52.375 C8.57788086 52.61791992 8.57788086 52.61791992 6.08984375 52.60546875 C5.19845703 52.60353516 4.30707031 52.60160156 3.38867188 52.59960938 C2.45603516 52.58736328 1.52339844 52.57511719 0.5625 52.5625 C-0.84225586 52.5615332 -0.84225586 52.5615332 -2.27539062 52.56054688 C-9.23480776 52.51519224 -9.23480776 52.51519224 -10.375 51.375 C-10.44813567 48.84450598 -10.46747527 46.34195163 -10.4375 43.8125 C-10.43298828 43.10158203 -10.42847656 42.39066406 -10.42382812 41.65820312 C-10.41200864 39.89709987 -10.39407263 38.13603964 -10.375 36.375 C-8.37545254 36.33245644 -6.37458364 36.33419217 -4.375 36.375 C-3.375 37.375 -3.375 37.375 -3.27734375 39.44140625 C-3.30989583 41.75260417 -3.34244792 44.06380208 -3.375 46.375 C-0.405 46.375 2.565 46.375 5.625 46.375 C5.625 43.075 5.625 39.775 5.625 36.375 C4.305 35.715 2.985 35.055 1.625 34.375 C-0.4453125 32.60546875 -0.4453125 32.60546875 -2.5 30.5625 C-3.18320313 29.89605469 -3.86640625 29.22960937 -4.5703125 28.54296875 C-6.49196439 26.23449083 -7.33146405 24.1685365 -8.375 21.375 C-9.035 20.715 -9.695 20.055 -10.375 19.375 C-10.57356972 16.50157939 -10.65328946 13.74638012 -10.625 10.875 C-10.63273438 10.08996094 -10.64046875 9.30492188 -10.6484375 8.49609375 C-10.61923585 -0.01618761 -7.63454095 0.01268196 0 0 Z " fill="#0A0A0A" transform="translate(143.375,67.625)"/>
<path d="M0 0 C0.886875 -0.00257812 1.77375 -0.00515625 2.6875 -0.0078125 C4.0796875 0.00378906 4.0796875 0.00378906 5.5 0.015625 C6.428125 0.00789063 7.35625 0.00015625 8.3125 -0.0078125 C9.6428125 -0.00394531 9.6428125 -0.00394531 11 0 C11.8146875 0.00225586 12.629375 0.00451172 13.46875 0.00683594 C15.5 0.265625 15.5 0.265625 17.5 2.265625 C17.74291992 4.58813477 17.74291992 4.58813477 17.73046875 7.45703125 C17.72853516 8.48376953 17.72660156 9.51050781 17.72460938 10.56835938 C17.70624023 12.18194336 17.70624023 12.18194336 17.6875 13.828125 C17.68685547 14.90771484 17.68621094 15.98730469 17.68554688 17.09960938 C17.64014598 25.12547902 17.64014598 25.12547902 16.5 26.265625 C14.52 26.265625 12.54 26.265625 10.5 26.265625 C10.5 19.995625 10.5 13.725625 10.5 7.265625 C7.2 7.265625 3.9 7.265625 0.5 7.265625 C0.51160156 8.69777344 0.52320312 10.12992188 0.53515625 11.60546875 C0.54453255 13.47135287 0.55363292 15.33723839 0.5625 17.203125 C0.57087891 18.14865234 0.57925781 19.09417969 0.58789062 20.06835938 C0.59111328 20.96748047 0.59433594 21.86660156 0.59765625 22.79296875 C0.60289307 23.62562256 0.60812988 24.45827637 0.61352539 25.31616211 C0.5 27.265625 0.5 27.265625 -0.5 28.265625 C-2.49958364 28.30643283 -4.50045254 28.30816856 -6.5 28.265625 C-6.55783842 23.97401453 -6.5935412 19.68250355 -6.625 15.390625 C-6.64175781 14.16730469 -6.65851563 12.94398437 -6.67578125 11.68359375 C-6.68222656 10.51699219 -6.68867187 9.35039063 -6.6953125 8.1484375 C-6.70578613 7.06965332 -6.71625977 5.99086914 -6.72705078 4.87939453 C-6.3239321 0.2387616 -4.11416002 0.01139206 0 0 Z " fill="#F3F3F3" transform="translate(80.5,67.734375)"/>
<path d="M0 0 C3.403125 -0.061875 6.80625 -0.12375 10.3125 -0.1875 C11.38153564 -0.21481201 12.45057129 -0.24212402 13.55200195 -0.27026367 C14.81983521 -0.28150269 14.81983521 -0.28150269 16.11328125 -0.29296875 C16.97735596 -0.3086792 17.84143066 -0.32438965 18.73168945 -0.34057617 C21 0 21 0 22.78710938 1.25390625 C24.29299155 3.4217946 24.34875717 4.60841286 24.29296875 7.23046875 C24.28330078 8.03291016 24.27363281 8.83535156 24.26367188 9.66210938 C24.23853516 10.49548828 24.21339844 11.32886719 24.1875 12.1875 C24.16719727 13.4549707 24.16719727 13.4549707 24.14648438 14.74804688 C24.11115799 16.83230384 24.05735139 18.91623277 24 21 C20.04 21.495 20.04 21.495 16 22 C16 17.05 16 12.1 16 7 C13.03 7 10.06 7 7 7 C7 12.61 7 18.22 7 24 C4.69 24 2.38 24 0 24 C0 16.08 0 8.16 0 0 Z " fill="#ECECEC" transform="translate(104,68)"/>
<path d="M0 0 C1.25586914 -0.00386719 1.25586914 -0.00386719 2.53710938 -0.0078125 C3.41302734 -0.00007813 4.28894531 0.00765625 5.19140625 0.015625 C6.06345703 0.00789063 6.93550781 0.00015625 7.83398438 -0.0078125 C8.67251953 -0.00523438 9.51105469 -0.00265625 10.375 0 C11.14255615 0.00225586 11.9101123 0.00451172 12.70092773 0.00683594 C14.75390625 0.265625 14.75390625 0.265625 17.75390625 2.265625 C18.046875 5.5234375 18.046875 5.5234375 17.94140625 9.390625 C17.91433594 10.67195313 17.88726562 11.95328125 17.859375 13.2734375 C17.82457031 14.26085937 17.78976563 15.24828125 17.75390625 16.265625 C15.44390625 16.265625 13.13390625 16.265625 10.75390625 16.265625 C10.75390625 13.295625 10.75390625 10.325625 10.75390625 7.265625 C7.45390625 7.265625 4.15390625 7.265625 0.75390625 7.265625 C0.75390625 15.185625 0.75390625 23.105625 0.75390625 31.265625 C-1.55609375 31.595625 -3.86609375 31.925625 -6.24609375 32.265625 C-6.29548003 28.02980173 -6.33180638 23.79413035 -6.35595703 19.55810547 C-6.36602338 18.11666953 -6.37967755 16.67525405 -6.39697266 15.23388672 C-6.42119387 13.16368566 -6.43257016 11.09375424 -6.44140625 9.0234375 C-6.45187988 7.7770752 -6.46235352 6.53071289 -6.47314453 5.24658203 C-6.11294994 0.5175756 -4.31040947 0.012687 0 0 Z " fill="#F2F2F2" transform="translate(50.24609375,67.734375)"/>
<path d="M0 0 C0.76828125 -0.02449219 1.5365625 -0.04898438 2.328125 -0.07421875 C5.97359114 -0.09313985 8.03543985 -0.0064801 11.1484375 2.0078125 C13.0598719 5.07217558 13.0308557 7.04031879 12.875 10.625 C12.83890625 11.70265625 12.8028125 12.7803125 12.765625 13.890625 C12.69601563 15.12039062 12.69601563 15.12039062 12.625 16.375 C10.315 16.375 8.005 16.375 5.625 16.375 C5.625 13.405 5.625 10.435 5.625 7.375 C2.655 7.375 -0.315 7.375 -3.375 7.375 C-3.25125 8.798125 -3.1275 10.22125 -3 11.6875 C-2.93039063 12.48800781 -2.86078125 13.28851563 -2.7890625 14.11328125 C-2.47935574 16.64724441 -2.47935574 16.64724441 -0.375 19.375 C-1.375 20.375 -1.375 20.375 -3.1875 20.5078125 C-3.909375 20.50523438 -4.63125 20.50265625 -5.375 20.5 C-6.096875 20.50257812 -6.81875 20.50515625 -7.5625 20.5078125 C-9.375 20.375 -9.375 20.375 -10.375 19.375 C-10.50163091 16.55083618 -10.56020548 13.76205207 -10.5625 10.9375 C-10.57474609 10.14794922 -10.58699219 9.35839844 -10.59960938 8.54492188 C-10.60487279 6.48692565 -10.49706285 4.42937991 -10.375 2.375 C-7.36999688 -0.63000312 -4.02160893 0.00668041 0 0 Z " fill="#EDEDED" transform="translate(143.375,67.625)"/>
<path d="M0 0 C1.4540625 0.0309375 1.4540625 0.0309375 2.9375 0.0625 C2.9375 3.6925 2.9375 7.3225 2.9375 11.0625 C6.2375 11.0625 9.5375 11.0625 12.9375 11.0625 C12.9375 7.7625 12.9375 4.4625 12.9375 1.0625 C15.2475 1.0625 17.5575 1.0625 19.9375 1.0625 C20.0185206 3.16603495 20.07669907 5.27045952 20.125 7.375 C20.15980469 8.54675781 20.19460937 9.71851562 20.23046875 10.92578125 C19.9375 14.0625 19.9375 14.0625 18.69287109 15.73583984 C16.49239118 17.39890074 15.29577635 17.43641164 12.55859375 17.42578125 C11.72005859 17.42513672 10.88152344 17.42449219 10.01757812 17.42382812 C8.70950195 17.3996582 8.70950195 17.3996582 7.375 17.375 C6.49908203 17.37822266 5.62316406 17.38144531 4.72070312 17.38476562 C-1.79541319 17.32958681 -1.79541319 17.32958681 -4.0625 15.0625 C-4.29296875 11.83984375 -4.29296875 11.83984375 -4.25 8 C-4.24355469 6.73027344 -4.23710938 5.46054688 -4.23046875 4.15234375 C-4.00918871 0.08182018 -4.00918871 0.08182018 0 0 Z " fill="#050505" transform="translate(48.0625,102.9375)"/>
<path d="M0 0 C2.97 0 5.94 0 9 0 C9 4.95 9 9.9 9 15 C12.465 14.505 12.465 14.505 16 14 C16 14.66 16 15.32 16 16 C16.99 16.33 17.98 16.66 19 17 C17.02 17 15.04 17 13 17 C13 17.66 13 18.32 13 19 C11.68 19 10.36 19 9 19 C9 19.99 9 20.98 9 22 C4.07872966 22.16682272 0.49656104 22.24828052 -4 20 C-3.505 18.515 -3.505 18.515 -3 17 C-2.01 17 -1.02 17 0 17 C0 11.39 0 5.78 0 0 Z " fill="#090909" transform="translate(111,75)"/>
<path d="M0 0 C-2.97 0.66 -5.94 1.32 -9 2 C-9.33 7.28 -9.66 12.56 -10 18 C-13.3 18 -16.6 18 -20 18 C-20 13.05 -20 8.1 -20 3 C-21.65 3 -23.3 3 -25 3 C-25 2.67 -25 2.34 -25 2 C-21.58518736 1.46649143 -18.16796104 0.95041814 -14.75 0.4375 C-13.78191406 0.28603516 -12.81382813 0.13457031 -11.81640625 -0.02148438 C-10.88183594 -0.16005859 -9.94726562 -0.29863281 -8.984375 -0.44140625 C-8.12553711 -0.57232666 -7.26669922 -0.70324707 -6.38183594 -0.83813477 C-4 -1 -4 -1 0 0 Z " fill="#EFEFEF" transform="translate(101,96)"/>
<path d="M0 0 C18.28208309 0.23520809 18.28208309 0.23520809 21.27734375 3.23046875 C13.91940642 4.14207161 6.68751398 4.34505901 -0.72265625 4.23046875 C-0.69945312 4.85953125 -0.67625 5.48859375 -0.65234375 6.13671875 C-0.53081544 11.90063273 -1.08491919 16.70310617 -2.72265625 22.23046875 C-3.05265625 22.23046875 -3.38265625 22.23046875 -3.72265625 22.23046875 C-4.94591109 15.65547399 -5.27282792 8.89780336 -4.72265625 2.23046875 C-2.72265625 0.23046875 -2.72265625 0.23046875 0 0 Z " fill="#DADADA" transform="translate(39.72265625,59.76953125)"/>
<path d="M0 0 C0.33 0 0.66 0 1 0 C2.16803601 7.30022508 2.34067242 14.61542437 2 22 C0.43696339 23.56303661 -1.09325858 23.12973386 -3.26171875 23.1328125 C-4.56979492 23.13474609 -4.56979492 23.13474609 -5.90429688 23.13671875 C-7.28198242 23.13091797 -7.28198242 23.13091797 -8.6875 23.125 C-9.58662109 23.12886719 -10.48574219 23.13273437 -11.41210938 23.13671875 C-16.05465229 23.12990651 -20.4337186 22.95414835 -25 22 C-25 21.67 -25 21.34 -25 21 C-19.79826905 20.13190561 -14.83021184 19.87484652 -9.5625 19.9375 C-8.46518555 19.94426758 -8.46518555 19.94426758 -7.34570312 19.95117188 C-5.56376581 19.96281852 -3.78187137 19.98074809 -2 20 C-2.020625 18.700625 -2.04125 17.40125 -2.0625 16.0625 C-2.0625 4.125 -2.0625 4.125 0 0 Z " fill="#1E1E1E" transform="translate(163,104)"/>
<path d="M0 0 C2 2 2 2 2.265625 4.6796875 C2.26046875 5.73414062 2.2553125 6.78859375 2.25 7.875 C2.25515625 8.92429687 2.2603125 9.97359375 2.265625 11.0546875 C2.0075764 13.91599111 1.4774449 15.57276909 0 18 C-0.33820166 16.4176994 -0.67035939 14.83410625 -1 13.25 C-1.185625 12.36828125 -1.37125 11.4865625 -1.5625 10.578125 C-2 8 -2 8 -2 4 C-2.65226563 4.01160156 -3.30453125 4.02320312 -3.9765625 4.03515625 C-8.7761914 4.08470994 -13.27784685 3.99413751 -18 3 C-18 2.34 -18 1.68 -18 1 C-12.07069473 -0.05409871 -6.01157788 -0.5881975 0 0 Z " fill="#D6D6D6" transform="translate(163,60)"/>
<path d="M0 0 C0.66 0.33 1.32 0.66 2 1 C3.22322357 5.15896013 3 8.49478944 3 13 C8.28 13.66 13.56 14.32 19 15 C19 15.33 19 15.66 19 16 C15.06119868 16.92373389 11.35476634 17.16445401 7.3125 17.1875 C5.60513672 17.20876953 5.60513672 17.20876953 3.86328125 17.23046875 C1 17 1 17 -1 15 C-1.23046875 12.28515625 -1.23046875 12.28515625 -1.1875 9.0625 C-1.18105469 8.00160156 -1.17460938 6.94070312 -1.16796875 5.84765625 C-1 3 -1 3 0 0 Z " fill="#202020" transform="translate(36,109)"/>
<path d="M0 0 C1.09731445 0.00676758 1.09731445 0.00676758 2.21679688 0.01367188 C3.99873419 0.02531852 5.78062863 0.04324809 7.5625 0.0625 C7.8925 1.0525 8.2225 2.0425 8.5625 3.0625 C5.68743579 3.08962325 2.81263092 3.10939851 -0.0625 3.125 C-1.27486328 3.13756836 -1.27486328 3.13756836 -2.51171875 3.15039062 C-6.94091918 3.1683955 -11.07633424 2.95872662 -15.4375 2.0625 C-15.4375 1.7325 -15.4375 1.4025 -15.4375 1.0625 C-10.23576905 0.19440561 -5.26771184 -0.06265348 0 0 Z " fill="#020202" transform="translate(153.4375,123.9375)"/>
<path d="M0 0 C0 1.32 0 2.64 0 4 C-4.92127034 4.16682272 -8.50343896 4.24828052 -13 2 C-13 1.67 -13 1.34 -13 1 C-8.60563789 0.14256349 -4.47427924 -0.08948558 0 0 Z " fill="#CECECE" transform="translate(120,93)"/>
<path d="M0 0 C0 0.33 0 0.66 0 1 C-1.98 1 -3.96 1 -6 1 C-6 1.66 -6 2.32 -6 3 C-9.3 2.67 -12.6 2.34 -16 2 C-16 1.67 -16 1.34 -16 1 C-10.61509359 0.08342019 -5.45769811 -0.11138159 0 0 Z " fill="#2E2E2E" transform="translate(154,124)"/>
<path d="M0 0 C0.33 0 0.66 0 1 0 C1.33 3.96 1.66 7.92 2 12 C1.01 11.67 0.02 11.34 -1 11 C-1.0270043 9.54176788 -1.04639787 8.08339325 -1.0625 6.625 C-1.07410156 5.81289062 -1.08570313 5.00078125 -1.09765625 4.1640625 C-1 2 -1 2 0 0 Z " fill="#353535" transform="translate(163,104)"/>
<path d="M0 0 C0 0.66 0 1.32 0 2 C0.99 2.33 1.98 2.66 3 3 C1.02 3 -0.96 3 -3 3 C-3 3.66 -3 4.32 -3 5 C-4.32 5 -5.64 5 -7 5 C-7 4.34 -7 3.68 -7 3 C-2.61538462 0 -2.61538462 0 0 0 Z " fill="#454545" transform="translate(127,89)"/>
</svg>
