<svg width="455" height="187" viewBox="0 0 455 187" fill="none" xmlns="http://www.w3.org/2000/svg">
<rect width="455" height="187" fill="black"/>
<path d="M125.078 56.7584L136.43 50L165 92.4716L154.796 98.5918V112.747H152.754L125.078 71.5516V56.7584Z" fill="white"/>
<path d="M100.975 69.3883L112.328 62.63L140.897 105.102L130.693 111.222V125.377H128.651L100.975 84.1815V69.3883Z" fill="white"/>
<path d="M77 82.0116L88.3527 75.2532L116.922 117.725L106.718 123.845V138H104.676L77 96.8048V82.0116Z" fill="white"/>
<path d="M188.028 118.388V118.393L188.016 118.388H188.028V69.3816H198.931V78.1341H199.613C201.772 72.3375 207.449 68.7247 214.829 68.7247C222.21 68.7247 227.773 71.8996 230.386 78.1341H230.955C234.023 71.8996 240.267 68.7247 247.762 68.7247C258.666 68.7247 265.478 75.5066 265.478 87.2151V118.393H254.12V88.2004C254.12 81.5279 250.148 77.6962 243.671 77.6962C236.631 77.6962 232.426 82.2885 232.426 88.9667V118.393H221.068V87.434C221.068 81.6374 216.869 77.6962 210.846 77.6962C204.488 77.6962 199.374 82.8359 199.374 90.0557V118.388H188.028Z" fill="white"/>
<path d="M274.33 69.3816V118.393H285.689V69.3816H274.33Z" fill="white"/>
<path d="M294.768 69.3816V118.388H306.127V90.3842C306.127 81.4185 315.553 76.273 323.502 79.0099L328.496 70.8048C326.451 69.3816 323.616 68.6152 320.547 68.6152C313.621 68.6152 308.399 72.3375 306.354 77.9151H305.786V69.3816H294.768Z" fill="white"/>
<path fill-rule="evenodd" clip-rule="evenodd" d="M349.048 119.379C339.962 119.379 332.013 114.458 328.61 106.472C326.223 100.894 324.525 89.8425 328.724 81.5279C332.809 73.3228 339.855 68.7305 349.161 68.7305C356.883 68.7305 361.195 71.9054 365.287 78.4683H365.968V69.3873H377.554V118.399H366.196V109.647H365.287C361.423 115.881 357.11 119.384 349.048 119.384V119.379ZM364.377 100.888C361.883 107.123 358.133 110.407 351.434 110.407C344.849 110.407 340.764 107.232 338.377 101.107C337.013 97.8287 336.332 91.6979 338.264 86.7771C340.53 81.09 344.849 77.5867 351.434 77.5867C358.019 77.5867 362.446 81.309 364.377 86.5582C366.309 91.3695 365.173 98.1514 364.377 100.888Z" fill="white"/>
</svg>
